<?xml version="1.0"?>
<svg xmlns="http://www.w3.org/2000/svg" viewBox="-50 -50 450 450">
    <path d="M321.093 244.759c-4.764-4.175-9.261-8.12-11.937-12.932a10.163 10.163 0 0 0-.282-.484c-8.386-13.416-11.139-42.7-12.961-62.08-.243-2.596-.477-5.081-.712-7.417a11.908 11.908 0 0 0-.055-.458c-3.61-25.277-12.541-61.671-34.577-91.498-16.139-21.843-36.722-36.063-60.432-41.997v-1.708C200.138 11.747 188.39 0 173.952 0c-14.439 0-26.186 11.747-26.186 26.186v1.708c-23.712 5.934-44.294 20.154-60.432 41.997-22.036 29.827-30.966 66.221-34.577 91.498a8.673 8.673 0 0 0-.056.458c-.233 2.336-.467 4.82-.711 7.417-1.822 19.379-4.575 48.664-12.959 62.08-.099.159-.194.32-.286.484-2.673 4.812-7.171 8.756-11.934 12.932-10.554 9.254-26.501 23.237-12.139 49.911a10.911 10.911 0 0 0 9.607 5.738h97.927c2.268 26.566 24.603 47.496 51.746 47.496 27.144 0 49.476-20.93 51.745-47.496h97.926c4.015 0 7.703-2.204 9.607-5.738 14.363-26.675-1.585-40.658-12.137-49.912zm-147.14 75.62c-11.947 0-21.912-8.624-24.012-19.971h48.021c-2.099 11.347-12.062 19.971-24.009 19.971z"/>
</svg>
