<svg viewBox="-100 -100 712 712" fill="#333"><path d="M307.775,172.584H204.225c-16.946,0-30.682,13.736-30.682,30.682v103.551c0,16.946,13.736,30.682,30.682,30.682h103.551 c16.946,0,30.682-13.736,30.682-30.682V203.266C338.457,186.32,324.721,172.584,307.775,172.584z"/><path d="M480.36,322.188v-38.511c15.341-1.289,26.221-13.609,26.221-28.636c0-15.026-10.88-27.347-26.221-28.636v-38.609 c15.341-1.289,26.221-13.609,26.221-28.636c0-15.026-10.88-27.347-26.221-28.636V58.922c0-15.885-12.253-28.241-28.139-28.241 h-71.576v-1.918C380.644,12.879,367.766,0,351.88,0c-15.885,0-28.764,12.879-28.764,28.764v1.918h-38.352v-1.918 C284.764,12.879,271.885,0,256,0s-28.764,12.879-28.764,28.764v1.918h-38.352v-1.918C188.884,12.879,176.005,0,160.12,0 c-15.885,0-28.764,12.879-28.764,28.764v1.918H59.779c-15.885,0-28.139,12.353-28.139,28.241v71.507 C16.3,130.765,3.502,143.487,3.502,159.161S16.3,187.557,31.64,187.894v38.415C16.3,226.645,3.502,239.367,3.502,255.043 c0,15.676,12.798,28.394,28.139,28.731v38.511C16.3,323.574,5.419,335.895,5.419,350.921c0,15.026,10.88,27.347,26.221,28.636 v71.805c0,15.885,12.253,28.039,28.139,28.039h71.576v3.835c0,15.885,12.879,28.764,28.764,28.764 c15.885,0,28.764-12.879,28.764-28.764v-3.835h38.352v3.835C227.236,499.121,240.115,512,256,512s28.764-12.879,28.764-28.764 v-3.835h38.352v3.835c0,15.885,12.879,28.764,28.764,28.764c15.885,0,28.764-12.879,28.764-28.764v-3.835h71.576 c15.885,0,28.139-12.152,28.139-28.039v-71.709c15.341-0.336,28.139-13.057,28.139-28.731 C508.498,335.247,495.7,322.526,480.36,322.188z M422.831,130.397c-15.885,0-28.764,12.879-28.764,28.764 c0,15.885,12.879,28.764,28.764,28.764v38.352c-15.885,0-28.764,12.879-28.764,28.764s12.879,28.764,28.764,28.764v38.417 c-15.341,0.681-27.472,13.249-27.472,28.699c0,15.45,12.131,28.018,27.472,28.699v42.253h-42.653 c-2.382-13.423-14.131-23.736-28.298-23.736c-14.167,0-25.916,10.313-28.298,23.736h-39.286 c-2.382-13.423-14.129-23.736-28.298-23.736c-14.169,0-25.914,10.313-28.296,23.736h-39.284 c-2.382-13.423-14.129-23.736-28.298-23.736s-25.916,10.313-28.298,23.736H89.169v-42.187c15.885,0,28.764-12.879,28.764-28.764 c0-15.885-12.879-28.764-28.764-28.764V283.74c15.341-0.681,27.472-13.249,27.472-28.699s-12.131-28.018-27.472-28.699V187.86 c15.341-0.681,27.472-13.249,27.472-28.699s-12.131-28.018-27.472-28.699V88.21h42.392c1.643,13.423,13.795,25.452,28.559,25.452 c14.764,0,26.915-12.029,28.559-25.452h38.762c1.643,13.423,13.795,25.452,28.559,25.452c14.764,0,26.915-12.029,28.559-25.452 h38.762c1.643,13.423,13.795,25.452,28.559,25.452s26.915-12.029,28.559-25.452h42.392V130.397z"/></svg>
